# xmcd
#
# Track frame offsets:
#  150
#  11123
#  20499
#  31112
#  44986
#  57170
#  70039
#  80988
#  93809
#  105955
#  117896
#  130414
#  146755
#  159448
#  174316
#
# Disc length: 2473 seconds
#
# Revision: 0
# Processed by: cddbd v1.4PL0 Copyright (c) Steve Scherf et al.
# Submitted via: AltoMP3_Maker 3.0
#
DISCID=c509a70f
DTITLE=Jerusalem Ridge - Beyond the Ridge
DYEAR=1900
DGENRE=
TTITLE0=Knee Deep In Lovin' You
TTITLE1=Lonesome Hobo
TTITLE2=John Henry
TTITLE3=More To Be Pitied
TTITLE4=Standing In The Need of Prayer
TTITLE5=Beyond the Ridge
TTITLE6=Dream of Me
TTITLE7=Cuttin' The Rug
TTITLE8=Why Don't You Tell Me So
TTITLE9=I'll Love Nobody But You
TTITLE10=Sidewinder
TTITLE11=A House of Gold
TTITLE12=Take Your Shoes Off, Moses
TTITLE13=My Friend Jim
TTITLE14=Long Gone
EXTD=
EXTT0=
EXTT1=
EXTT2=
EXTT3=
EXTT4=
EXTT5=
EXTT6=
EXTT7=
EXTT8=
EXTT9=
EXTT10=
EXTT11=
EXTT12=
EXTT13=
EXTT14=
PLAYORDER=
